<svg xmlns="http://www.w3.org/2000/svg" xmlns:xlink="http://www.w3.org/1999/xlink" viewBox="0 0 369.03 369.03"><defs><style>.cls-1{isolation:isolate;}.cls-2{fill:url(#linear-gradient);}.cls-3{opacity:0.6;}.cls-37,.cls-4,.cls-48,.cls-5,.cls-61,.cls-72,.cls-75,.cls-77,.cls-80,.cls-88{mix-blend-mode:multiply;}.cls-5,.cls-6{fill:#fffeec;}.cls-7{fill:#4a2913;}.cls-8{fill:url(#linear-gradient-2);}.cls-9{fill:#472c1b;}.cls-10{fill:#a95e40;}.cls-11{fill:#ffe0b8;}.cls-12,.cls-19{fill:#ec511f;}.cls-13{fill:#83e0c9;}.cls-14{fill:#5bc4ab;}.cls-15{fill:#725b2c;}.cls-15,.cls-16,.cls-17,.cls-18,.cls-19,.cls-20,.cls-85,.cls-86,.cls-87,.cls-88{fill-rule:evenodd;}.cls-16{fill:#c0dfcf;}.cls-17{fill:#7fc8ca;}.cls-18,.cls-53{fill:#5e431b;}.cls-20,.cls-68{fill:#cc471f;}.cls-21{fill:#d9c9a9;}.cls-22{fill:url(#linear-gradient-3);}.cls-23{fill:#231f20;}.cls-24{fill:#88596d;}.cls-25{fill:url(#linear-gradient-4);}.cls-26{fill:url(#radial-gradient);}.cls-27{fill:#d1ffff;}.cls-27,.cls-29,.cls-34,.cls-63,.cls-79{mix-blend-mode:soft-light;}.cls-28{fill:#dec9a7;}.cls-29{fill:#f6eccc;}.cls-30{fill:url(#radial-gradient-2);}.cls-31{fill:url(#radial-gradient-3);}.cls-32{fill:url(#radial-gradient-4);}.cls-33,.cls-85{fill:#402c33;}.cls-34{fill:url(#linear-gradient-5);}.cls-35{fill:#797c7e;}.cls-36{fill:url(#linear-gradient-6);}.cls-37{fill:#88e2e7;}.cls-38{fill:#db3d90;}.cls-39{fill:#79bdc2;}.cls-40{fill:#5b6a93;}.cls-41{fill:#5b6a81;}.cls-42{fill:#475181;}.cls-43{fill:#59d3ca;}.cls-44{fill:#43c3c7;}.cls-45{fill:#603913;}.cls-46{fill:url(#linear-gradient-7);}.cls-47{fill:url(#radial-gradient-5);}.cls-48{fill:#bdd1e7;}.cls-49{fill:#ea4a1a;}.cls-50{fill:url(#radial-gradient-6);}.cls-51{fill:#f5e9ca;}.cls-52{fill:#ddcea8;}.cls-54{fill:url(#linear-gradient-8);}.cls-55{fill:url(#linear-gradient-9);}.cls-56{fill:url(#linear-gradient-10);}.cls-57{fill:url(#linear-gradient-11);}.cls-58{fill:#ffeac9;}.cls-59{fill:#979581;}.cls-60{fill:#d8b581;}.cls-61{fill:#e9ddca;}.cls-62{fill:url(#linear-gradient-12);}.cls-63{fill:url(#linear-gradient-13);}.cls-64{fill:#79aeb3;}.cls-65{fill:url(#linear-gradient-14);}.cls-66{fill:url(#linear-gradient-15);}.cls-67{fill:#eaae33;}.cls-69{fill:url(#radial-gradient-7);}.cls-70{fill:#759a29;}.cls-71{fill:url(#radial-gradient-8);}.cls-72{fill:#e2ddc3;}.cls-73{fill:url(#linear-gradient-16);}.cls-74{fill:#e95a0c;}.cls-75{fill:#dbc69a;}.cls-76{fill:url(#linear-gradient-17);}.cls-77{fill:#f8d97a;}.cls-78{fill:#a43674;}.cls-79{fill:#b8b5b5;}.cls-80{fill:#d1c7a4;}.cls-81{fill:#56241d;}.cls-82{fill:#ab9279;}.cls-83{fill:#81481d;}.cls-84{fill:#ab2c74;}.cls-86{fill:#a65195;}.cls-87{fill:#aba979;}.cls-88{fill:#cc9ab5;}</style><linearGradient id="linear-gradient" x1="184.51" y1="195.57" x2="184.51" y2="95.54" gradientTransform="translate(130.98 369.03) rotate(-90)" gradientUnits="userSpaceOnUse"><stop offset="0.19" stop-color="#de9f3b"/><stop offset="0.35" stop-color="#db9d3b"/><stop offset="0.49" stop-color="#d09639"/><stop offset="0.61" stop-color="#bf8b37"/><stop offset="0.73" stop-color="#a67b33"/><stop offset="0.85" stop-color="#86672f"/><stop offset="0.96" stop-color="#604f29"/><stop offset="1" stop-color="#514527"/></linearGradient><linearGradient id="linear-gradient-2" x1="184.51" y1="168.02" x2="184.51" y2="107.26" gradientTransform="translate(130.98 369.03) rotate(-90)" gradientUnits="userSpaceOnUse"><stop offset="0.04" stop-color="#4a396a"/><stop offset="0.3" stop-color="#493867"/><stop offset="0.48" stop-color="#44355e"/><stop offset="0.63" stop-color="#3c2f4f"/><stop offset="0.77" stop-color="#30283a"/><stop offset="0.89" stop-color="#231f20"/></linearGradient><linearGradient id="linear-gradient-3" x1="322.24" y1="116.15" x2="322.24" y2="136.38" gradientTransform="translate(130.98 369.03) rotate(-90)" gradientUnits="userSpaceOnUse"><stop offset="0.23" stop-color="#2c150e"/><stop offset="0.34" stop-color="#2c150e" stop-opacity="0.69"/><stop offset="0.53" stop-color="#2c150e" stop-opacity="0.3"/><stop offset="0.74" stop-color="#2c150e" stop-opacity="0.07"/><stop offset="1" stop-color="#2c150e" stop-opacity="0"/></linearGradient><linearGradient id="linear-gradient-4" x1="23.45" y1="191.73" x2="64.81" y2="150.37" gradientTransform="translate(130.98 369.03) rotate(-90)" gradientUnits="userSpaceOnUse"><stop offset="0.19" stop-color="#43c3c7"/><stop offset="0.36" stop-color="#42c0c5"/><stop offset="0.5" stop-color="#40b5c0"/><stop offset="0.63" stop-color="#3ba4b6"/><stop offset="0.76" stop-color="#358ba9"/><stop offset="0.88" stop-color="#2e6c98"/><stop offset="1" stop-color="#244583"/><stop offset="1" stop-color="#244583"/></linearGradient><radialGradient id="radial-gradient" cx="404.13" cy="304.14" r="6.17" gradientTransform="translate(0 96.67) scale(0.74 0.74)" gradientUnits="userSpaceOnUse"><stop offset="0.28" stop-color="#402c33"/><stop offset="0.43" stop-color="#483a3e"/><stop offset="0.66" stop-color="#514a4b"/><stop offset="0.84" stop-color="#544f4f"/></radialGradient><radialGradient id="radial-gradient-2" cx="345.81" cy="137.8" r="31.18" gradientTransform="translate(96.67 369.03) rotate(-90) scale(0.74 0.74)" gradientUnits="userSpaceOnUse"><stop offset="0.35" stop-color="#79360e"/><stop offset="0.44" stop-color="#79360e" stop-opacity="0.7"/><stop offset="0.54" stop-color="#79360e" stop-opacity="0.45"/><stop offset="0.64" stop-color="#79360e" stop-opacity="0.25"/><stop offset="0.74" stop-color="#79360e" stop-opacity="0.11"/><stop offset="0.86" stop-color="#79360e" stop-opacity="0.03"/><stop offset="1" stop-color="#79360e" stop-opacity="0"/></radialGradient><radialGradient id="radial-gradient-3" cx="498.32" cy="137.89" r="36" xlink:href="#radial-gradient-2"/><radialGradient id="radial-gradient-4" cx="-359.58" cy="2283.36" r="31.5" gradientTransform="matrix(-0.52, -0.52, 0.52, -0.52, -1323.36, 1116.49)" gradientUnits="userSpaceOnUse"><stop offset="0.22" stop-color="#79360e"/><stop offset="0.33" stop-color="#79360e" stop-opacity="0.7"/><stop offset="0.44" stop-color="#79360e" stop-opacity="0.45"/><stop offset="0.56" stop-color="#79360e" stop-opacity="0.25"/><stop offset="0.69" stop-color="#79360e" stop-opacity="0.11"/><stop offset="0.83" stop-color="#79360e" stop-opacity="0.03"/><stop offset="1" stop-color="#79360e" stop-opacity="0"/></radialGradient><linearGradient id="linear-gradient-5" x1="189.98" y1="-3.54" x2="210.51" y2="-44.43" gradientTransform="translate(130.98 369.03) rotate(-90)" gradientUnits="userSpaceOnUse"><stop offset="0" stop-color="#e2b3d8" stop-opacity="0"/><stop offset="0.08" stop-color="#e2b3d8" stop-opacity="0.02"/><stop offset="0.17" stop-color="#e2b3d8" stop-opacity="0.09"/><stop offset="0.27" stop-color="#e2b3d8" stop-opacity="0.19"/><stop offset="0.38" stop-color="#e2b3d8" stop-opacity="0.34"/><stop offset="0.49" stop-color="#e2b3d8" stop-opacity="0.53"/><stop offset="0.6" stop-color="#e2b3d8" stop-opacity="0.75"/><stop offset="0.7" stop-color="#e2b3d8"/></linearGradient><linearGradient id="linear-gradient-6" x1="34.64" y1="54.17" x2="40.8" y2="105.46" gradientTransform="translate(128.62 298.18) rotate(-45)" gradientUnits="userSpaceOnUse"><stop offset="0.19" stop-color="#6fdec7"/><stop offset="0.42" stop-color="#6cdbc5"/><stop offset="0.62" stop-color="#64d0be"/><stop offset="0.8" stop-color="#55bfb3"/><stop offset="0.97" stop-color="#41a6a3"/><stop offset="1" stop-color="#3da19f"/></linearGradient><linearGradient id="linear-gradient-7" x1="184.51" y1="221.46" x2="184.51" y2="211.13" gradientTransform="translate(130.98 369.03) rotate(-90)" gradientUnits="userSpaceOnUse"><stop offset="0" stop-color="#5b9093"/><stop offset="0.23" stop-color="#5a8d91"/><stop offset="0.4" stop-color="#55848b"/><stop offset="0.55" stop-color="#4d7481"/><stop offset="0.69" stop-color="#425d73"/><stop offset="0.82" stop-color="#334161"/><stop offset="0.82" stop-color="#334060"/></linearGradient><radialGradient id="radial-gradient-5" cx="248.67" cy="304.64" r="75.98" gradientTransform="translate(96.67 369.03) rotate(-90) scale(0.74 0.74)" gradientUnits="userSpaceOnUse"><stop offset="0.22" stop-color="#36271b"/><stop offset="0.41" stop-color="#452d18"/><stop offset="0.77" stop-color="#5c3614"/><stop offset="1" stop-color="#653913"/></radialGradient><radialGradient id="radial-gradient-6" cx="45.31" cy="65.05" r="33.25" xlink:href="#radial-gradient-2"/><linearGradient id="linear-gradient-8" x1="77.57" y1="-41.88" x2="77.57" y2="-74.75" gradientTransform="translate(130.98 369.03) rotate(-90)" gradientUnits="userSpaceOnUse"><stop offset="0.04" stop-color="#544f4f"/><stop offset="0.38" stop-color="#524c4d"/><stop offset="0.61" stop-color="#4d4346"/><stop offset="0.81" stop-color="#453439"/><stop offset="0.89" stop-color="#402c33"/></linearGradient><linearGradient id="linear-gradient-9" x1="77.57" y1="-35" x2="77.57" y2="-48.92" gradientTransform="translate(130.98 369.03) rotate(-90)" gradientUnits="userSpaceOnUse"><stop offset="0.04" stop-color="#ffeac9"/><stop offset="0.23" stop-color="#fce7c7"/><stop offset="0.35" stop-color="#f3dec0"/><stop offset="0.46" stop-color="#e4cfb4"/><stop offset="0.56" stop-color="#cebaa3"/><stop offset="0.65" stop-color="#b29e8d"/><stop offset="0.74" stop-color="#907c72"/><stop offset="0.82" stop-color="#685452"/><stop offset="0.89" stop-color="#402c33"/></linearGradient><linearGradient id="linear-gradient-10" x1="77.57" y1="-46.18" x2="77.57" y2="-82.67" xlink:href="#linear-gradient-9"/><linearGradient id="linear-gradient-11" x1="77.57" y1="-61.16" x2="77.57" y2="-121.35" xlink:href="#linear-gradient-8"/><linearGradient id="linear-gradient-12" x1="186.23" y1="10.07" x2="186.23" y2="21.43" xlink:href="#linear-gradient-8"/><linearGradient id="linear-gradient-13" x1="186.1" y1="16.72" x2="186.1" y2="4.11" gradientTransform="translate(130.98 369.03) rotate(-90)" gradientUnits="userSpaceOnUse"><stop offset="0" stop-color="#c7fbd8" stop-opacity="0"/><stop offset="0.08" stop-color="#c7fbd8" stop-opacity="0.02"/><stop offset="0.18" stop-color="#c7fbd8" stop-opacity="0.08"/><stop offset="0.28" stop-color="#c7fbd8" stop-opacity="0.17"/><stop offset="0.39" stop-color="#c7fbd8" stop-opacity="0.3"/><stop offset="0.5" stop-color="#c7fbd8" stop-opacity="0.47"/><stop offset="0.61" stop-color="#c7fbd8" stop-opacity="0.68"/><stop offset="0.73" stop-color="#c7fbd8" stop-opacity="0.92"/><stop offset="0.76" stop-color="#c7fbd8"/></linearGradient><linearGradient id="linear-gradient-14" x1="248.89" y1="58.72" x2="248.89" y2="38.18" gradientTransform="translate(130.98 369.03) rotate(-90)" gradientUnits="userSpaceOnUse"><stop offset="0.04" stop-color="#797c7e"/><stop offset="0.29" stop-color="#77797b"/><stop offset="0.47" stop-color="#717073"/><stop offset="0.62" stop-color="#666165"/><stop offset="0.75" stop-color="#564b50"/><stop offset="0.88" stop-color="#433036"/><stop offset="0.89" stop-color="#402c33"/></linearGradient><linearGradient id="linear-gradient-15" x1="260.05" y1="58.72" x2="260.05" y2="38.18" xlink:href="#linear-gradient-14"/><radialGradient id="radial-gradient-7" cx="145.06" cy="145.55" r="33.25" xlink:href="#radial-gradient-2"/><radialGradient id="radial-gradient-8" cx="234.81" cy="284.05" r="68.5" gradientTransform="translate(96.67 369.03) rotate(-90) scale(0.74 0.74)" gradientUnits="userSpaceOnUse"><stop offset="0.23" stop-color="#79360e"/><stop offset="0.33" stop-color="#79360e" stop-opacity="0.7"/><stop offset="0.45" stop-color="#79360e" stop-opacity="0.45"/><stop offset="0.57" stop-color="#79360e" stop-opacity="0.25"/><stop offset="0.69" stop-color="#79360e" stop-opacity="0.11"/><stop offset="0.83" stop-color="#79360e" stop-opacity="0.03"/><stop offset="1" stop-color="#79360e" stop-opacity="0"/></radialGradient><linearGradient id="linear-gradient-16" x1="359.3" y1="90.22" x2="359.3" y2="60.94" gradientTransform="translate(130.98 369.03) rotate(-90)" gradientUnits="userSpaceOnUse"><stop offset="0" stop-color="#ddcea8" stop-opacity="0"/><stop offset="0.09" stop-color="#ddcea8" stop-opacity="0.02"/><stop offset="0.19" stop-color="#ddcea8" stop-opacity="0.09"/><stop offset="0.3" stop-color="#ddcea8" stop-opacity="0.19"/><stop offset="0.42" stop-color="#ddcea8" stop-opacity="0.35"/><stop offset="0.54" stop-color="#ddcea8" stop-opacity="0.54"/><stop offset="0.66" stop-color="#ddcea8" stop-opacity="0.77"/><stop offset="0.76" stop-color="#ddcea8"/></linearGradient><linearGradient id="linear-gradient-17" x1="-2296.87" y1="3542.25" x2="-2268.46" y2="3542.25" gradientTransform="translate(-2094.35 3556.22) rotate(180)" gradientUnits="userSpaceOnUse"><stop offset="0.02" stop-color="#bc3b1f"/><stop offset="0.05" stop-color="#c64e1a"/><stop offset="0.13" stop-color="#d56e12"/><stop offset="0.21" stop-color="#e2880b"/><stop offset="0.29" stop-color="#ed9c06"/><stop offset="0.39" stop-color="#f4aa03"/><stop offset="0.51" stop-color="#f8b301"/><stop offset="0.72" stop-color="#f9b500"/></linearGradient></defs><title>workPlace</title><g class="cls-1"><g id="Layer_1" data-name="Layer 1"><rect class="cls-2" width="369.03" height="369.03"/><g class="cls-3"><g class="cls-4"><rect class="cls-5" y="287.02" width="41.01" height="41"/></g><g class="cls-4"><rect class="cls-5" x="41.01" y="328.02" width="41" height="41"/></g><g class="cls-4"><rect class="cls-5" x="41.01" y="246.02" width="41" height="41"/></g><g class="cls-4"><rect class="cls-5" x="82.01" y="287.02" width="41" height="41"/></g><g class="cls-4"><rect class="cls-5" y="205.01" width="41.01" height="41"/></g><g class="cls-4"><rect class="cls-5" y="123.01" width="41.01" height="41"/></g><g class="cls-4"><rect class="cls-5" x="41.01" y="164.01" width="41" height="41"/></g><g class="cls-4"><rect class="cls-5" x="82.01" y="205.01" width="41" height="41"/></g><g class="cls-4"><rect class="cls-5" x="82.01" y="123.01" width="41" height="41"/></g><g class="cls-4"><rect class="cls-5" x="123.01" y="328.02" width="41" height="41"/></g><g class="cls-4"><rect class="cls-5" x="123.01" y="246.02" width="41" height="41"/></g><g class="cls-4"><rect class="cls-5" x="164.01" y="287.02" width="41" height="41"/></g><g class="cls-4"><rect class="cls-5" x="205.02" y="328.02" width="41" height="41"/></g><g class="cls-4"><rect class="cls-5" x="205.02" y="246.02" width="41" height="41"/></g><g class="cls-4"><rect class="cls-5" x="123.01" y="164.01" width="41" height="41"/></g><g class="cls-4"><rect class="cls-5" x="164.01" y="205.01" width="41" height="41"/></g><g class="cls-4"><g class="cls-4"><rect class="cls-6" x="164.01" y="123.01" width="41" height="41"/></g></g><g class="cls-4"><rect class="cls-5" x="205.02" y="164.01" width="41" height="41"/></g><rect class="cls-5" y="41" width="41.01" height="41"/><rect class="cls-5" x="41.01" y="82.01" width="41" height="41"/><rect class="cls-5" x="41.01" width="41" height="41"/><rect class="cls-5" x="82.01" y="41" width="41" height="41"/><g class="cls-4"><rect class="cls-5" x="123.01" y="82.01" width="41" height="41"/></g><g class="cls-4"><rect class="cls-5" x="123.01" width="41" height="41"/></g><g class="cls-4"><rect class="cls-5" x="164.01" y="41" width="41" height="41"/></g><g class="cls-4"><rect class="cls-5" x="205.02" y="82.01" width="41" height="41"/></g><g class="cls-4"><rect class="cls-5" x="205.02" width="41" height="41"/></g><g class="cls-4"><rect class="cls-5" x="246.02" y="287.02" width="41" height="41"/></g><g class="cls-4"><rect class="cls-5" x="287.02" y="328.02" width="41" height="41"/></g><g class="cls-4"><rect class="cls-5" x="287.02" y="246.02" width="41" height="41"/></g><g class="cls-4"><rect class="cls-5" x="328.03" y="287.02" width="41" height="41"/></g><g class="cls-4"><rect class="cls-5" x="246.02" y="205.01" width="41" height="41"/></g><g class="cls-4"><rect class="cls-5" x="246.02" y="123.01" width="41" height="41"/></g><g class="cls-4"><rect class="cls-5" x="287.02" y="164.01" width="41" height="41"/></g><g class="cls-4"><rect class="cls-5" x="328.03" y="205.01" width="41" height="41"/></g><g class="cls-4"><rect class="cls-5" x="328.03" y="123.01" width="41" height="41"/></g><g class="cls-4"><rect class="cls-5" x="246.02" y="41" width="41" height="41"/></g><g class="cls-4"><rect class="cls-5" x="287.02" y="82.01" width="41" height="41"/></g><g class="cls-4"><rect class="cls-5" x="287.02" width="41" height="41"/></g><g class="cls-4"><rect class="cls-5" x="328.03" y="41" width="41" height="41"/></g></g><rect class="cls-7" x="258.16" y="135.16" width="82.17" height="98.71" rx="9.45" ry="9.45"/><rect class="cls-8" x="238.72" y="144.62" width="66.42" height="79.8" rx="7.64" ry="7.64"/><rect class="cls-9" x="246.59" y="6.2" width="41.82" height="81.19"/><rect class="cls-10" x="246.59" y="84.68" width="41.82" height="2.71"/><rect class="cls-10" x="246.59" y="6.2" width="41.82" height="2.71"/><rect class="cls-11" x="246.42" y="46.91" width="29.94" height="25.23" transform="translate(34.48 202.27) rotate(-45)"/><rect class="cls-12" x="249.23" y="53.69" width="10.75" height="25.23" transform="translate(27.69 199.45) rotate(-45)"/><rect class="cls-9" x="251.48" y="56.1" width="6.16" height="20.78" transform="translate(27.55 199.48) rotate(-45)"/><rect class="cls-13" x="252.18" y="56.1" width="4.77" height="20.78" transform="translate(27.54 199.48) rotate(-45)"/><polygon class="cls-14" points="248.9 57.46 263.6 72.15 245.53 60.83 248.9 57.46"/><rect class="cls-12" x="265.35" y="63.94" width="3.79" height="3.79" transform="translate(31.72 208.25) rotate(-45)"/><rect class="cls-12" x="261.34" y="59.93" width="3.79" height="3.79" transform="translate(33.38 204.25) rotate(-45)"/><rect class="cls-12" x="257.33" y="55.93" width="3.79" height="3.79" transform="translate(35.08 200.3) rotate(-45.02)"/><rect class="cls-9" x="253.33" y="51.92" width="3.79" height="3.79" transform="translate(36.7 196.23) rotate(-45)"/><rect class="cls-12" x="269.28" y="60.01" width="3.78" height="3.79" transform="translate(35.68 209.91) rotate(-45.01)"/><rect class="cls-12" x="265.28" y="56" width="3.78" height="3.79" transform="translate(37.33 205.9) rotate(-45.01)"/><rect class="cls-12" x="261.27" y="51.99" width="3.78" height="3.79" transform="translate(39.01 201.93) rotate(-45.02)"/><rect class="cls-9" x="257.26" y="47.99" width="3.79" height="3.79" transform="translate(40.64 197.86) rotate(-45)"/><rect class="cls-12" x="273.22" y="56.07" width="3.79" height="3.79" transform="translate(39.59 211.51) rotate(-45)"/><rect class="cls-12" x="269.21" y="52.06" width="3.79" height="3.79" transform="translate(41.27 207.53) rotate(-45.01)"/><rect class="cls-12" x="265.2" y="48.06" width="3.79" height="3.79" transform="translate(42.91 203.5) rotate(-45)"/><rect class="cls-9" x="261.2" y="44.05" width="3.79" height="3.79" transform="translate(44.57 199.49) rotate(-45)"/><path class="cls-15" d="M267.27,26.2l-8.73-8.73a2.32,2.32,0,0,0-3.26.18l-1.08,1.08a2.36,2.36,0,0,0-.27,3.2,1.26,1.26,0,0,0-.07,1.87l7.77,7.77a.38.38,0,0,0,.54-.54L255,23.86c-.35-.35-.42-.71-.14-1l7.88,7.88a2,2,0,0,0,1.38.58l5.6,5.6a.41.41,0,0,0,0,.48c.1.1.29.08.47,0h0a.38.38,0,0,0,0,.47.41.41,0,0,0,.48,0,.32.32,0,1,0,.44.44l0,0a.32.32,0,1,0,.44.44l.4.41a1.91,1.91,0,0,0,1.88.46l1.52,1.52,2.34-2.34-1.52-1.52a1.93,1.93,0,0,0-.47-1.86l-.39-.39a.33.33,0,1,0-.47-.47.41.41,0,0,0,0-.48.37.37,0,0,0-.47,0,.41.41,0,0,0,0-.48.38.38,0,0,0-.47,0h0a.38.38,0,0,0,0-.47.41.41,0,0,0-.48,0l-5.6-5.6A2,2,0,0,0,267.27,26.2Z"/><path class="cls-16" d="M277.29,39.18l-1.55,1.55a1.28,1.28,0,0,0,0,1.8l1.72,1.72a1.27,1.27,0,0,0,.78.37l2.38.3a1,1,0,0,0,.48,0l-2.84-2.84a.59.59,0,0,1-.56-.14.57.57,0,1,1,.8-.8.52.52,0,0,1,.13.57l2.84,2.84a1.09,1.09,0,0,0,0-.46l-.32-2.39a1.28,1.28,0,0,0-.37-.78l-1.72-1.72A1.28,1.28,0,0,0,277.29,39.18Z"/><path class="cls-17" d="M280.73,42.14a1.27,1.27,0,0,0-.37-.78l-1.72-1.72a1.28,1.28,0,0,0-1.81,0l.46-.46a1.28,1.28,0,0,1,1.8,0l1.72,1.72a1.28,1.28,0,0,1,.37.78l.32,2.39a1.09,1.09,0,0,1,0,.46l-.48-.48Z"/><path class="cls-18" d="M270.82,36.73l-.39.39a.37.37,0,0,0,0,.47h0l.39-.39,0,0A.37.37,0,0,1,270.82,36.73Zm.5.94s-.05,0-.07,0a.37.37,0,0,1,0-.44l-.39.39a.39.39,0,0,0,0,.46l.06,0Zm-.93-.9,0,0a.37.37,0,0,1,0-.46l-4.89-4.89-.39.39L270,36.66a.38.38,0,0,0,0,.47l.05,0Zm1.32,1.32a.39.39,0,0,1,0-.46l-.41.41a.41.41,0,0,0,0,.45s0,0,0,0l.39-.39Zm.8.33-.33-.33-.39.39.33.33a1.88,1.88,0,0,0,1.93.42l.4-.4A1.87,1.87,0,0,1,272.5,38.41Zm1.87,1,1.21,1.21.39-.39-1.21-1.21Z"/><path class="cls-19" d="M255.28,17.66l-1.08,1.08a2.36,2.36,0,0,0-.27,3.2c0,.05,8.8,8.8,8.8,8.8a2,2,0,0,0,1.38.58l3.74-3.75a2,2,0,0,0-.59-1.37l-8.73-8.73A2.32,2.32,0,0,0,255.28,17.66Z"/><path class="cls-20" d="M267.85,27.57a2,2,0,0,0-.59-1.37l-8.73-8.73a2.32,2.32,0,0,0-3.26.18l-.5.5a1.89,1.89,0,0,1,1.8.44L266.7,28.72Z"/><path class="cls-9" d="M302.19,46.79a13,13,0,0,1-12.95,12.95V55.31a8.52,8.52,0,0,0,0-17V33.85A13,13,0,0,1,302.19,46.79Z"/><rect class="cls-21" x="284.48" y="6.2" width="5.9" height="81.19"/><rect class="cls-22" x="245.98" y="6.2" width="23.62" height="81.19"/><rect class="cls-23" x="208.34" y="291.7" width="73.72" height="58.88" rx="5.84" ry="5.84"/><rect class="cls-23" x="313.7" y="300.7" width="2.2" height="40.86"/><circle class="cls-24" cx="275.34" cy="298.35" r="3.31"/><path class="cls-23" d="M277.45,313.54h23.39a7.51,7.51,0,0,1,0,15H277.45v10.22H314.1V303.32H277.45Z"/><path class="cls-25" d="M312.68,321.14a14.41,14.41,0,1,0-14.41,14.41A14.41,14.41,0,0,0,312.68,321.14Zm-17.49,0a3.08,3.08,0,1,1,3.08,3.08A3.08,3.08,0,0,1,295.18,321.14Z"/><path class="cls-26" d="M302.82,321.14a4.55,4.55,0,1,0-4.55,4.55A4.55,4.55,0,0,0,302.82,321.14Zm-6.07,0a1.52,1.52,0,1,1,1.52,1.52A1.52,1.52,0,0,1,296.75,321.14Z"/><path class="cls-27" d="M307.48,330.28l-4.88-4.9a6.06,6.06,0,1,1-8.56-8.59l-4.89-4.89a13,13,0,1,0,18.33,18.38Z"/><rect class="cls-28" width="251.31" height="369.03"/><path class="cls-9" d="M183.21,339.77v8.3a5.07,5.07,0,0,1-5.07,5.07h-5.51a5.07,5.07,0,0,1-5.07-5.07v-8.3a5.07,5.07,0,0,1,5.07-5.07h5.51A5.07,5.07,0,0,1,183.21,339.77Zm-13.89,8.3a3.32,3.32,0,0,0,3.32,3.32h5.51a3.32,3.32,0,0,0,3.32-3.32v-8.3a3.32,3.32,0,0,0-3.32-3.32h-5.51a3.33,3.33,0,0,0-3.32,3.32Z"/><path class="cls-9" d="M183.21,317v8.3a5.07,5.07,0,0,1-5.07,5.07h-5.51a5.07,5.07,0,0,1-5.07-5.07V317a5.07,5.07,0,0,1,5.07-5.07h5.51A5.07,5.07,0,0,1,183.21,317Zm-13.89,8.3a3.32,3.32,0,0,0,3.32,3.32h5.51a3.32,3.32,0,0,0,3.32-3.32V317a3.32,3.32,0,0,0-3.32-3.32h-5.51a3.32,3.32,0,0,0-3.32,3.32Z"/><rect class="cls-9" x="172.96" y="329.33" width="1.75" height="6.18"/><path class="cls-29" d="M180.46,348.07v-8.3a2.33,2.33,0,0,0-2.32-2.33h-5.51a2.33,2.33,0,0,0-2.33,2.33v.74l9.32,9.32A2.32,2.32,0,0,0,180.46,348.07Z"/><path class="cls-29" d="M180.46,325.28V317a2.33,2.33,0,0,0-2.32-2.32h-5.51a2.33,2.33,0,0,0-2.33,2.32v.7l9.35,9.35A2.31,2.31,0,0,0,180.46,325.28Z"/><circle class="cls-30" cx="198.37" cy="113.8" r="23.01"/><path class="cls-31" d="M171.71,0c-.06.74-.1,1.48-.1,2.23a26.33,26.33,0,0,0,52.67,0c0-.75,0-1.5-.1-2.23Z"/><path class="cls-32" d="M73.83,93.64a25.87,25.87,0,1,1-36.58,36.58C27.14,120.12,63.73,83.54,73.83,93.64Z"/><path class="cls-33" d="M173.59,113.83v1.48H128.75c-8.2,0-13.1-4.9-13.1-13.1V87.63c0-7.07-5-14.39-13.28-14.39H0V71.76H102.37c9.24,0,14.76,8.07,14.76,15.87v14.58c0,7.39,4.24,11.62,11.62,11.62Z"/><rect class="cls-33" x="101.32" y="142.21" width="66.06" height="81.19" rx="8.86" ry="8.86"/><rect class="cls-34" x="104.46" y="145.38" width="60.89" height="74.84" rx="8.16" ry="8.16"/><path class="cls-33" d="M222.1,305.32a2.59,2.59,0,0,1,3.65,0l15,15a2.59,2.59,0,0,1,0,3.65l-30.9,30.9a2.59,2.59,0,0,1-3.65,0l-15-15a2.59,2.59,0,0,1,0-3.65Z"/><rect class="cls-35" x="195.97" y="319.27" width="38.7" height="23" transform="translate(-170.82 249.13) rotate(-45)"/><rect class="cls-36" x="197.9" y="319.27" width="34.83" height="23" transform="translate(-170.82 249.13) rotate(-45)"/><polygon class="cls-37" points="219.5 310.32 235.76 326.58 194.87 334.95 219.5 310.32"/><circle class="cls-38" cx="231.2" cy="314.88" r="1.57" transform="translate(-154.95 255.83) rotate(-45.02)"/><rect class="cls-39" x="168.14" y="80.76" width="4.97" height="16.97"/><rect class="cls-40" x="167.23" y="69.84" width="6.79" height="23.16"/><rect class="cls-33" x="167.23" y="69.84" width="6.79" height="21.65"/><path class="cls-33" d="M53.26,119.19a1.34,1.34,0,0,1,1.9,0h0a1.34,1.34,0,0,1,0,1.9L29.72,146.53a1.34,1.34,0,0,1-1.9,0h0a1.34,1.34,0,0,1,0-1.9Z"/><path class="cls-33" d="M60.19,90.49a10.86,10.86,0,0,1,15.36,0h0a10.86,10.86,0,0,1,0,15.35L51,130.36a10.86,10.86,0,0,1-15.35,0h0a10.86,10.86,0,0,1,0-15.35Z"/><rect class="cls-41" x="39.26" y="112.96" width="11.85" height="15.79" transform="translate(-72.22 67.35) rotate(-45)"/><circle class="cls-38" cx="56.02" cy="117.26" r="2" transform="translate(-66.52 73.99) rotate(-45.01)"/><circle class="cls-38" cx="52.4" cy="113.64" r="1.99" transform="translate(-65.02 70.35) rotate(-45.01)"/><circle class="cls-38" cx="48.78" cy="110.02" r="1.99" transform="translate(-63.52 66.73) rotate(-45.01)"/><circle class="cls-38" cx="60.52" cy="112.77" r="1.99" transform="translate(-62 75.78) rotate(-44.98)"/><circle class="cls-38" cx="56.9" cy="109.14" r="1.99" transform="translate(-60.51 72.2) rotate(-45)"/><circle class="cls-38" cx="53.28" cy="105.52" r="1.99" transform="translate(-59.01 68.57) rotate(-44.99)"/><circle class="cls-38" cx="65.02" cy="108.27" r="1.99" transform="translate(-57.51 77.67) rotate(-44.99)"/><circle class="cls-38" cx="61.4" cy="104.65" r="1.99" transform="translate(-56.02 74.08) rotate(-45.01)"/><circle class="cls-38" cx="57.78" cy="101.03" r="1.99" transform="translate(-54.52 70.46) rotate(-45.01)"/><circle class="cls-38" cx="69.51" cy="103.77" r="2" transform="translate(-53.02 79.58) rotate(-45.01)"/><circle class="cls-38" cx="65.89" cy="100.15" r="2" transform="translate(-51.52 75.93) rotate(-45)"/><circle class="cls-38" cx="62.27" cy="96.53" r="1.99" transform="translate(-50.02 72.35) rotate(-45.02)"/><path class="cls-42" d="M75.19,102.93A8.76,8.76,0,0,0,63.11,90.85Z"/><rect class="cls-43" x="40.58" y="112.96" width="9.21" height="15.79" transform="translate(-72.22 67.35) rotate(-45)"/><polygon class="cls-44" points="42.86 112.01 54.03 123.18 36.35 118.53 42.86 112.01"/><circle class="cls-45" cx="354.72" cy="184.51" r="4.18"/><path class="cls-46" d="M346.84,171.6a7.38,7.38,0,0,1,7.38,7.38V190a7.38,7.38,0,0,1-7.38,7.38h0a7.38,7.38,0,0,1-7.38-7.38V179a7.38,7.38,0,0,1,7.38-7.38Z"/><rect class="cls-47" x="326.79" y="123.99" width="18.94" height="121.04" rx="8.86" ry="8.86"/><path class="cls-39" d="M138.47,166.69a8.24,8.24,0,0,1,8.24,8.24v15.75a8.24,8.24,0,0,1-8.24,8.24h0a8.24,8.24,0,0,1-8.24-8.24V174.93a8.24,8.24,0,0,1,8.24-8.24Z"/><path class="cls-48" d="M146.71,182.93v7.74a8.24,8.24,0,0,1-8.24,8.24h0a8.24,8.24,0,0,1-8.24-8.24v-7.74Z"/><path class="cls-33" d="M143.76,137.42v1.48H107.22C96.1,138.9,88,132.22,88,123V96.09A15.15,15.15,0,0,0,72.72,80.77H0V79.3H72.72A16.61,16.61,0,0,1,89.51,96.09V123c0,8.34,7.45,14.39,17.71,14.39Z"/><path class="cls-33" d="M193.61,104.68a9.88,9.88,0,0,1,9.88,9.88h0a9.88,9.88,0,0,1-9.88,9.88h-12a9.88,9.88,0,0,1-9.88-9.88h0a9.88,9.88,0,0,1,9.88-9.88Z"/><rect class="cls-49" x="290.38" y="130.68" width="33.28" height="107.69" rx="15.07" ry="15.07"/><path class="cls-33" d="M28.08,217.25V233.8H26.6V217.25c0-8.34-4.82-13.53-12.58-13.53H0v-1.48H14C22.56,202.25,28.08,208.13,28.08,217.25Z"/><circle class="cls-50" cx="144.68" cy="335.59" r="24.54"/><circle class="cls-51" cx="138.81" cy="332.49" r="19.88" transform="translate(-194.46 195.55) rotate(-45)"/><path class="cls-52" d="M152.22,319.09a19,19,0,0,1,0,26.82L125.4,319.09A19,19,0,0,1,152.22,319.09Z"/><circle class="cls-51" cx="138.81" cy="332.49" r="13.66"/><circle class="cls-9" cx="138.81" cy="332.5" r="11.38" transform="translate(-194.45 195.52) rotate(-45)"/><path class="cls-53" d="M131.91,339.39a9.76,9.76,0,0,1,0-13.8c10.83-.1,2.68,11,13.8,13.79A9.76,9.76,0,0,1,131.91,339.39Z"/><path class="cls-51" d="M138.81,309.78a1.55,1.55,0,0,1,1.55,1.55v7.57a1.55,1.55,0,0,1-1.55,1.55h0a1.55,1.55,0,0,1-1.55-1.55v-7.57a1.55,1.55,0,0,1,1.55-1.55Z"/><path class="cls-54" d="M80.38,233.31a2.83,2.83,0,0,1,2.82,2.82V346.78a2.83,2.83,0,0,1-2.82,2.82H60V233.31Z"/><rect class="cls-33" x="16.6" y="228.51" width="61.12" height="125.9"/><rect class="cls-33" x="50.97" y="252.23" width="48.35" height="78.46" rx="10.95" ry="10.95"/><rect class="cls-33" x="75.9" y="298.76" width="42.27" height="12.16"/><rect class="cls-33" x="75.9" y="272" width="42.27" height="12.16"/><rect class="cls-55" x="52.79" y="263.18" width="39.23" height="56.56"/><rect class="cls-56" x="48.69" y="263.18" width="39.23" height="56.56"/><path class="cls-57" d="M53.85,252.72A5.19,5.19,0,0,1,59,257.89V325a5.19,5.19,0,0,1-5.17,5.17H16.6V252.72Z"/><rect class="cls-33" x="43.06" y="257.07" width="11.56" height="32.65" rx="2.02" ry="2.02"/><circle class="cls-39" cx="49.1" cy="281.91" r="2.77"/><circle class="cls-39" cx="49.1" cy="273.54" r="2.77"/><circle class="cls-38" cx="49.1" cy="264.88" r="2.77"/><path class="cls-33" d="M16.07,226.76a3.44,3.44,0,0,1,3.44,3.44V352.72a3.44,3.44,0,0,1-3.44,3.44h0a3.44,3.44,0,0,1-3.44-3.44V230.2a3.44,3.44,0,0,1,3.44-3.44Z"/><path class="cls-33" d="M172.54,233.74v1.48H107.59c-13,0-19.93-6.44-19.93-18.64v-15.5c0-7.85-3.75-16.24-14.27-16.24H0v-1.48H73.4c11.61,0,15.74,9.15,15.74,17.71v15.5c0,11.39,6.21,17.16,18.45,17.16Z"/><path class="cls-33" d="M89.5,178.52a3.61,3.61,0,0,1,0,5.09L56.27,216.84a3.61,3.61,0,0,1-5.09,0L16.38,182a3.61,3.61,0,0,1,0-5.09l33.23-33.23a3.61,3.61,0,0,1,5.09,0Z"/><rect class="cls-39" x="27.67" y="156.9" width="51.28" height="47.51" transform="translate(-112.13 90.61) rotate(-45)"/><rect class="cls-58" x="28.59" y="158.08" width="49.48" height="45.18" transform="translate(-112.14 90.63) rotate(-45)"/><circle class="cls-9" cx="25.33" cy="181.25" r="1.8" transform="translate(-120.73 70.98) rotate(-44.99)"/><path class="cls-59" d="M25.73,180.94a.5.5,0,0,1,0,.71h0a.51.51,0,0,1-.71,0l-4.8-4.81a.5.5,0,0,1,0-.71h0a.5.5,0,0,1,.71,0Z"/><circle class="cls-9" cx="28.9" cy="177.68" r="1.8" transform="translate(-117.18 72.48) rotate(-45)"/><path class="cls-59" d="M29.3,177.36a.5.5,0,0,1,0,.71h0a.5.5,0,0,1-.71,0l-4.81-4.81a.5.5,0,0,1,0-.71h0a.5.5,0,0,1,.71,0Z"/><circle class="cls-9" cx="32.48" cy="174.11" r="1.8" transform="translate(-113.6 73.96) rotate(-45)"/><path class="cls-59" d="M32.87,173.79a.51.51,0,0,1,0,.71h0a.5.5,0,0,1-.71,0l-4.81-4.8a.5.5,0,0,1,0-.71h0a.5.5,0,0,1,.71,0Z"/><circle class="cls-9" cx="36.05" cy="170.54" r="1.8" transform="translate(-110.03 75.44) rotate(-45)"/><path class="cls-59" d="M36.44,170.22a.5.5,0,0,1,0,.71h0a.5.5,0,0,1-.71,0l-4.81-4.8a.5.5,0,0,1,0-.71h0a.5.5,0,0,1,.71,0Z"/><circle class="cls-9" cx="39.62" cy="166.96" r="1.8" transform="translate(-106.45 76.9) rotate(-44.99)"/><path class="cls-59" d="M40,166.65a.5.5,0,0,1,0,.71h0a.5.5,0,0,1-.71,0l-4.8-4.8a.5.5,0,0,1,0-.71h0a.5.5,0,0,1,.71,0Z"/><circle class="cls-9" cx="43.19" cy="163.39" r="1.8" transform="translate(-102.86 78.36) rotate(-44.98)"/><path class="cls-59" d="M43.59,163.07a.5.5,0,0,1,0,.71h0a.5.5,0,0,1-.71,0L38.07,159a.5.5,0,0,1,0-.71h0a.5.5,0,0,1,.71,0Z"/><circle class="cls-9" cx="46.77" cy="159.82" r="1.8" transform="translate(-99.3 79.86) rotate(-44.99)"/><path class="cls-59" d="M47.16,159.5a.5.5,0,0,1,0,.71h0a.5.5,0,0,1-.71,0l-4.8-4.8a.5.5,0,0,1,0-.71h0a.5.5,0,0,1,.71,0Z"/><circle class="cls-9" cx="50.34" cy="156.25" r="1.8" transform="translate(-95.74 81.36) rotate(-45)"/><path class="cls-59" d="M50.73,155.93a.51.51,0,0,1,0,.71h0a.5.5,0,0,1-.71,0l-4.81-4.81a.5.5,0,0,1,0-.71h0a.5.5,0,0,1,.71,0Z"/><circle class="cls-9" cx="53.91" cy="152.68" r="1.8" transform="translate(-92.18 82.86) rotate(-45.01)"/><path class="cls-59" d="M54.31,152.36a.5.5,0,0,1,0,.71h0a.5.5,0,0,1-.71,0l-4.81-4.8a.51.51,0,0,1,0-.71h0a.51.51,0,0,1,.71,0Z"/><path class="cls-60" d="M29.34,187.08a.3.3,0,0,1-.42,0h0a.3.3,0,0,1,0-.42l30.39-30.39a.3.3,0,0,1,.42,0h0a.3.3,0,0,1,0,.42Z"/><path class="cls-60" d="M32.36,190.09a.3.3,0,0,1-.42,0h0a.3.3,0,0,1,0-.42l30.39-30.39a.3.3,0,0,1,.42,0h0a.3.3,0,0,1,0,.42Z"/><path class="cls-60" d="M35.37,193.11a.3.3,0,0,1-.42,0h0a.3.3,0,0,1,0-.42L65.35,162.3a.3.3,0,0,1,.42,0h0a.3.3,0,0,1,0,.42Z"/><path class="cls-60" d="M38.39,196.13a.3.3,0,0,1-.42,0h0a.3.3,0,0,1,0-.42l30.39-30.39a.3.3,0,0,1,.42,0h0a.3.3,0,0,1,0,.42Z"/><path class="cls-60" d="M41.41,199.14a.3.3,0,0,1-.42,0h0a.29.29,0,0,1,0-.42l30.39-30.39a.3.3,0,0,1,.42,0h0a.3.3,0,0,1,0,.42Z"/><path class="cls-60" d="M44.42,202.16a.3.3,0,0,1-.42,0h0a.3.3,0,0,1,0-.42l30.39-30.39a.3.3,0,0,1,.42,0h0a.3.3,0,0,1,0,.42Z"/><path class="cls-60" d="M47.44,205.18a.3.3,0,0,1-.42,0h0a.3.3,0,0,1,0-.42l30.39-30.39a.3.3,0,0,1,.42,0h0a.3.3,0,0,1,0,.42Z"/><path class="cls-60" d="M50.46,208.19a.3.3,0,0,1-.42,0h0a.3.3,0,0,1,0-.42l30.39-30.39a.3.3,0,0,1,.42,0h0a.3.3,0,0,1,0,.42Z"/><polygon class="cls-58" points="23.57 144.31 0 120.73 0 167.88 23.57 144.31"/><path class="cls-60" d="M17.62,145.67,0,128v.84l17.2,17.2a.3.3,0,0,0,.42-.42ZM0,158.21v.84l2.12,2.12a.3.3,0,1,0,.42-.42Zm0-12.07V147l8.15,8.15a.29.29,0,0,0,.42,0,.3.3,0,0,0,0-.42Zm0,6V153l5.14,5.13a.3.3,0,0,0,.42-.42Zm0-12.07V141l11.17,11.17a.3.3,0,1,0,.42-.42Zm0-6v.84L14.19,149.1a.3.3,0,1,0,.42-.42Z"/><polygon class="cls-51" points="62.17 167.56 59.52 174.1 66.06 171.45 89.94 147.57 86.05 143.68 62.17 167.56"/><rect class="cls-38" x="59.17" y="154.81" width="33.78" height="5.51" transform="translate(-89.14 99.93) rotate(-45)"/><polygon class="cls-9" points="60.82 170.89 59.52 174.1 62.73 172.8 60.82 170.89"/><polygon class="cls-61" points="59.52 174.1 66.06 171.45 89.94 147.57 88 145.62 59.52 174.1"/><path class="cls-62" d="M151.63,79.72V285.88h0A12.64,12.64,0,0,1,139,273.24V92.36a12.64,12.64,0,0,1,12.64-12.64Z"/><path class="cls-63" d="M151.18,281.45h0a9.11,9.11,0,0,1-9.11-9.11V93.51a9.11,9.11,0,0,1,9.11-9.11Z"/><rect class="cls-64" x="150.65" y="64.84" width="6.89" height="235.93"/><rect class="cls-58" x="155.07" y="64.84" width="2.46" height="235.93"/><path class="cls-65" d="M181.56,124.44h3.11v-4.5a3.85,3.85,0,0,0-3.92-4.11h-9A9.88,9.88,0,0,0,181.56,124.44Z"/><path class="cls-66" d="M181.56,104.68h3.11v4.5a3.85,3.85,0,0,1-3.92,4.11h-9A9.88,9.88,0,0,1,181.56,104.68Z"/><path class="cls-67" d="M216.36,117.77h-6.27s-.74,5.35-6.18,5.35H192a3.56,3.56,0,1,1-.09-7.1h8.49c3.51,0,3.6-6.46,0-6.46H178.72a3.33,3.33,0,1,1,0-6.64h23.53c4.43,0,5.78,1.91,5.78,1.91h7.73Z"/><path class="cls-67" d="M212.58,106.42H183.8a3.33,3.33,0,1,1,0-6.64h21.13A7.29,7.29,0,0,1,212.58,106.42Z"/><path class="cls-49" d="M318.54,134.42l-16.46,15.89c-7.9-8.18-21.24-21.91-23.39-23.9A16.42,16.42,0,0,0,267,122.07H210.31V99.19H267a39.35,39.35,0,0,1,27.2,10.41C297.48,112.63,315.05,130.81,318.54,134.42Z"/><path class="cls-33" d="M205.75,52.18v1.11H142.83a5.81,5.81,0,0,1-5.91-6.08,6.47,6.47,0,0,1,1.56-4.3,6.07,6.07,0,0,1,4.71-2h13.47c4.14,0,6.31-3.63,6.31-7.22s-2.18-7.17-7-7.17H114.05a7.52,7.52,0,0,1-5.51-2.05,6.47,6.47,0,0,1-1.82-4.58,7,7,0,0,1,7.34-7h18.08c2.54,0,3.88-2.14,3.88-4.26a4.3,4.3,0,0,0-1-2.81,3.69,3.69,0,0,0-2.92-1.24h-33a5.3,5.3,0,0,0-5.17,5.54c0,3.67-1.86,5.86-5,5.86h-14V14.86H89c3.37,0,3.87-3,3.87-4.75a6.39,6.39,0,0,1,6.27-6.64h33a4.76,4.76,0,0,1,3.76,1.62,5.41,5.41,0,0,1,1.22,3.52c0,2.67-1.71,5.37-5,5.37H114.05a5.87,5.87,0,0,0-6.23,5.91,5.36,5.36,0,0,0,1.5,3.8,6.45,6.45,0,0,0,4.73,1.72h41.88c5.6,0,8.15,4.29,8.15,8.28a9.27,9.27,0,0,1-1.89,5.69A6.84,6.84,0,0,1,156.67,42H143.2a5,5,0,0,0-3.88,1.61A5.36,5.36,0,0,0,138,47.21a4.69,4.69,0,0,0,4.8,5Z"/><path class="cls-33" d="M216.54,51a1.79,1.79,0,0,1,1.79,1.79h0a1.79,1.79,0,0,1-1.79,1.79H205.18a1.79,1.79,0,0,1-1.79-1.79h0A1.79,1.79,0,0,1,205.18,51Z"/><rect class="cls-33" x="209.33" y="44.8" width="30.4" height="15.99"/><rect class="cls-13" x="211.35" y="46.82" width="11.95" height="11.95" rx="1.63" ry="1.63"/><path class="cls-14" d="M223.3,57.15v-8.7a1.63,1.63,0,0,0-1.63-1.63H213a1.62,1.62,0,0,0-1.27.62l11,11A1.62,1.62,0,0,0,223.3,57.15Z"/><circle class="cls-12" cx="230.11" cy="52.8" r="3.47"/><path class="cls-68" d="M226.82,51.73a4.15,4.15,0,0,1,5.72,3.54,3.46,3.46,0,1,0-5.72-3.54Z"/><path class="cls-33" d="M179.33,232.72a1.79,1.79,0,0,1,1.79,1.79h0a1.79,1.79,0,0,1-1.79,1.79H168a1.79,1.79,0,0,1-1.79-1.79h0a1.79,1.79,0,0,1,1.79-1.79Z"/><circle class="cls-69" cx="204.09" cy="261.97" r="24.54"/><rect class="cls-33" x="170.7" y="148.48" width="35.06" height="155.92"/><rect class="cls-35" x="175.07" y="295.21" width="4.32" height="4.32"/><rect class="cls-35" x="175.07" y="288.37" width="4.32" height="4.32"/><rect class="cls-35" x="175.07" y="281.52" width="4.32" height="4.32"/><rect class="cls-35" x="175.07" y="274.67" width="4.32" height="4.32"/><rect class="cls-35" x="175.07" y="267.82" width="4.32" height="4.32"/><rect class="cls-35" x="175.07" y="260.97" width="4.32" height="4.32"/><rect class="cls-35" x="175.07" y="254.13" width="4.32" height="4.32"/><rect class="cls-35" x="175.07" y="247.28" width="4.32" height="4.32"/><rect class="cls-35" x="175.07" y="240.43" width="4.32" height="4.32"/><rect class="cls-35" x="175.07" y="233.58" width="4.32" height="4.32"/><rect class="cls-35" x="175.07" y="226.74" width="4.32" height="4.32"/><rect class="cls-35" x="175.07" y="219.89" width="4.32" height="4.32"/><rect class="cls-35" x="175.07" y="213.04" width="4.32" height="4.32"/><rect class="cls-35" x="175.07" y="206.19" width="4.32" height="4.32"/><rect class="cls-35" x="175.07" y="199.34" width="4.32" height="4.32"/><rect class="cls-35" x="181.9" y="295.21" width="4.32" height="4.32"/><rect class="cls-35" x="181.9" y="288.37" width="4.32" height="4.32"/><rect class="cls-35" x="181.9" y="281.52" width="4.32" height="4.32"/><rect class="cls-35" x="181.9" y="274.67" width="4.32" height="4.32"/><rect class="cls-35" x="181.9" y="267.82" width="4.32" height="4.32"/><rect class="cls-35" x="181.9" y="260.97" width="4.32" height="4.32"/><rect class="cls-35" x="181.9" y="254.13" width="4.32" height="4.32"/><rect class="cls-35" x="181.9" y="247.28" width="4.32" height="4.32"/><rect class="cls-35" x="181.9" y="240.43" width="4.32" height="4.32"/><rect class="cls-35" x="181.9" y="233.58" width="4.32" height="4.32"/><rect class="cls-35" x="181.9" y="226.74" width="4.32" height="4.32"/><rect class="cls-35" x="181.9" y="219.89" width="4.32" height="4.32"/><rect class="cls-35" x="181.9" y="213.04" width="4.32" height="4.32"/><rect class="cls-35" x="181.9" y="206.19" width="4.32" height="4.32"/><rect class="cls-35" x="181.9" y="199.34" width="4.32" height="4.32"/><rect class="cls-35" x="189.35" y="295.21" width="4.32" height="4.32"/><rect class="cls-35" x="189.35" y="288.37" width="4.32" height="4.32"/><rect class="cls-35" x="189.35" y="281.52" width="4.32" height="4.32"/><rect class="cls-35" x="189.35" y="274.67" width="4.32" height="4.32"/><rect class="cls-35" x="189.35" y="267.82" width="4.32" height="4.32"/><rect class="cls-35" x="189.35" y="260.97" width="4.32" height="4.32"/><rect class="cls-35" x="189.35" y="254.13" width="4.32" height="4.32"/><rect class="cls-35" x="189.35" y="247.28" width="4.32" height="4.32"/><rect class="cls-35" x="189.35" y="240.43" width="4.32" height="4.32"/><rect class="cls-35" x="189.35" y="233.58" width="4.32" height="4.32"/><rect class="cls-35" x="189.35" y="226.74" width="4.32" height="4.32"/><rect class="cls-35" x="189.35" y="219.89" width="4.32" height="4.32"/><rect class="cls-35" x="189.35" y="206.19" width="4.32" height="4.32"/><rect class="cls-35" x="196.56" y="206.19" width="4.32" height="4.32"/><rect class="cls-35" x="175.07" y="181.15" width="4.32" height="4.32"/><rect class="cls-35" x="175.07" y="174.3" width="4.32" height="4.32"/><rect class="cls-35" x="175.07" y="167.45" width="4.32" height="4.32"/><rect class="cls-35" x="175.07" y="160.6" width="4.32" height="4.32"/><rect class="cls-35" x="175.07" y="153.76" width="4.32" height="4.32"/><rect class="cls-35" x="181.9" y="181.15" width="4.32" height="4.32"/><rect class="cls-35" x="181.9" y="174.3" width="4.32" height="4.32"/><rect class="cls-35" x="181.9" y="167.45" width="4.32" height="4.32"/><rect class="cls-35" x="181.9" y="160.6" width="4.32" height="4.32"/><rect class="cls-35" x="181.9" y="153.76" width="4.32" height="4.32"/><rect class="cls-35" x="189.35" y="181.15" width="4.32" height="4.32"/><rect class="cls-35" x="196.56" y="174.3" width="4.32" height="11.17"/><rect class="cls-35" x="189.35" y="174.3" width="4.32" height="4.32"/><rect class="cls-35" x="189.35" y="167.45" width="4.32" height="4.32"/><rect class="cls-35" x="189.35" y="160.6" width="4.32" height="4.32"/><rect class="cls-35" x="189.35" y="153.76" width="4.32" height="4.32"/><rect class="cls-35" x="196.56" y="288.37" width="4.32" height="4.32"/><rect class="cls-35" x="196.56" y="226.74" width="4.32" height="59.1"/><rect class="cls-35" x="196.56" y="219.89" width="4.32" height="4.32"/><rect class="cls-35" x="196.56" y="213.04" width="4.32" height="4.32"/><rect class="cls-35" x="196.56" y="199.34" width="4.32" height="4.32"/><rect class="cls-64" x="175.07" y="192.06" width="25.82" height="0.76"/><path class="cls-67" d="M216.36,247.39h-6.27s-.74-5.35-6.18-5.35H192a3.56,3.56,0,1,0-.09,7.1h8.49c3.51,0,3.6,6.46,0,6.46H178.72a3.33,3.33,0,1,0,0,6.64h23.53c4.43,0,5.78-1.91,5.78-1.91h7.73Z"/><path class="cls-67" d="M220.67,253.66h-8.49s-.74-5.35-6.18-5.35.09,13.56-3.51,13.56H183a3.33,3.33,0,1,0,0,6.64h23.53c4.43,0,5.78-1.91,5.78-1.91h7.73Z"/><path class="cls-67" d="M226.45,256.86H218s-.74-5.35-6.18-5.35-4.52,7.1-3.51,7.1c3.51,0,3.6,6.46,0,6.46H188.81a3.33,3.33,0,1,0,0,6.64h15.78c4.43,0,5.78-1.91,5.78-1.91h15.48Z"/><path class="cls-23" d="M293.92,155.76c11.55,0,11.55,57.5,0,57.5H255.69a20.91,20.91,0,0,1-20.91-20.91V176.67a20.91,20.91,0,0,1,20.91-20.91Z"/><path class="cls-49" d="M318.54,234.6c-3.49,3.61-21.06,21.79-24.33,24.82A39.35,39.35,0,0,1,267,269.83H210.31V247H267a16.42,16.42,0,0,0,11.68-4.35c2.15-2,15.49-15.71,23.39-23.9Z"/><rect class="cls-70" x="234.78" y="186.72" width="41.15" height="3.84"/><rect class="cls-70" x="234.78" y="178.54" width="41.15" height="3.84"/><rect class="cls-71" x="290.38" y="185.27" width="33.28" height="53.1" rx="15.07" ry="15.07"/><circle class="cls-21" cx="298.13" cy="184.51" r="31.12" transform="translate(-43.15 264.85) rotate(-45)"/><path class="cls-70" d="M320.14,206.52l-22-22-22,22a31.12,31.12,0,0,0,44,0Z"/><path class="cls-70" d="M276.13,162.51l22,22,22-22h0A31.12,31.12,0,0,0,276.13,162.51Z"/><circle class="cls-23" cx="298.13" cy="184.51" r="4.18" transform="translate(-43.15 264.86) rotate(-45)"/><path class="cls-72" d="M298.13,215.64A31.12,31.12,0,0,1,267,184.51h62.24A31.12,31.12,0,0,1,298.13,215.64Z"/><path class="cls-72" d="M284,252.19c-8.12,8.12-16.24,7.63-21.4,7.63H210.31v10H267a39.35,39.35,0,0,0,27.2-10.41c3.27-3,20.84-21.2,24.33-24.82h0a15,15,0,0,0,5.12-11.3V212.51Z"/><path class="cls-72" d="M210.31,269.83v-5.35a7.65,7.65,0,0,1-5.24,1.59h-25.4a3.27,3.27,0,0,0,3.36,2.44h2.3a3.28,3.28,0,0,0,3.48,3.2h15.78c4.13,0,5.59-1.66,5.76-1.88Z"/><circle class="cls-49" cx="176.88" cy="188.5" r="1.08"/><circle class="cls-49" cx="184.15" cy="188.5" r="1.08"/><circle class="cls-49" cx="191.42" cy="188.5" r="1.08"/><path class="cls-51" d="M162.07,0a26.81,26.81,0,0,0,26.31,21.67A26.81,26.81,0,0,0,214.68,0Z"/><path class="cls-73" d="M183.8,0c2.15,11.08-7.13,19.45,4.58,19.45A24.07,24.07,0,0,0,212,0Z"/><path class="cls-74" d="M188.38,39.14a5.23,5.23,0,0,0,5.23-5.23V0H183.15V33.91A5.23,5.23,0,0,0,188.38,39.14Z"/><path class="cls-75" d="M193,33.88V0h-3.18V34.81a4.82,4.82,0,0,1-1.74,3.71l.27,0A4.66,4.66,0,0,0,193,33.88Z"/><path class="cls-76" d="M188.38,27.94a11.31,11.31,0,0,0,11.31-11.31V0H177.06V16.63A11.31,11.31,0,0,0,188.38,27.94Z"/><path class="cls-77" d="M198.66,16.28V0h-5.6V17.48a11.74,11.74,0,0,1-4.75,9.43A10.63,10.63,0,0,0,198.66,16.28Z"/><path class="cls-58" d="M88.48,66.19l7.1-7.09-55-55-7.13,7.12ZM41.7,10.52a2,2,0,1,1-2.87,0A2,2,0,0,1,41.7,10.52Z"/><path class="cls-78" d="M69.14,36.44l-.79-.79-5.21,5.2.79.79Zm2.65,7.81L71,43.45l-2.63,2.63.79.79Zm-2.61-2.62-.79-.79-2.63,2.63.79.79Zm5.22,5.23-.79-.79L71,48.69l.79.79ZM90,57.36l-.79-.79-5.19,5.19.79.79ZM79.63,52.09l-.79-.79-2.62,2.62.79.79Zm5.22,5.23-.79-.79-2.62,2.62.79.79Zm-2.61-2.62-.79-.79-2.62,2.62.79.79ZM79.59,46.9l-.79-.79-5.2,5.2.79.79ZM50.89,23.31l-.79-.79-2.64,2.64.79.79Zm2.61,2.61-.79-.79-2.64,2.64.79.79ZM64,36.4l-.79-.79-2.63,2.63.79.79ZM43,20.73l5.22-5.22-.79-.79-5.23,5.22Zm5.26,0-.79-.79-2.64,2.64.79.79ZM61.34,33.78,60.55,33l-2.64,2.64.79.79Zm-2.61-2.61-.79-.79L55.3,33l.79.79Zm0-5.19-.79-.79-5.22,5.21.8.8Z"/><path class="cls-33" d="M22,0H20a25.88,25.88,0,0,0,38,35.14L69.23,23.85l-1.07-1.07L56.87,34.07A24.37,24.37,0,0,1,22,0Z"/><path class="cls-33" d="M58.3,26.18a2.17,2.17,0,0,0-.4,2.55,2.44,2.44,0,0,0,.35,2.2l3.4,3.44a2.42,2.42,0,0,0,2.87.42,2.12,2.12,0,0,0,2.86-.1h0c1.44.85,5.7-2,7.93-4.19s5.29-6.73,4.44-8.17a2.12,2.12,0,0,0,.08-2.83,2.42,2.42,0,0,0-.42-2.87l-3.16-3.16a2.44,2.44,0,0,0-2.48-.58,2.17,2.17,0,0,0-2.55.4Z"/><path class="cls-38" d="M67.38,34.68h0L79.75,22.32c.85,1.44-2.21,5.94-4.44,8.17S68.82,35.53,67.38,34.68Z"/><path class="cls-79" d="M59.52,30.17l1.6,1.6L76.75,16.21l-1.63-1.63a1.73,1.73,0,0,0-2.45,0L59.52,27.72A1.73,1.73,0,0,0,59.52,30.17Z"/><path class="cls-38" d="M17.59,7a2.51,2.51,0,0,1,.61,2.58A22.62,22.62,0,0,0,46.84,38.27,2.52,2.52,0,0,1,48.44,43a27.65,27.65,0,0,1-35-35,2.52,2.52,0,0,1,4.16-1Z"/><path class="cls-80" d="M22.39,34.07a24.41,24.41,0,0,0,27.2,5,2.51,2.51,0,0,0-2.75-.81A22.62,22.62,0,0,1,18.2,9.62,2.51,2.51,0,0,0,17.59,7a2.29,2.29,0,0,0-.2-.16A24.4,24.4,0,0,0,22.39,34.07Z"/><path class="cls-81" d="M210.43,189.4v25.7h0a2.49,2.49,0,0,1,2.3,1.53,2.48,2.48,0,0,1,2.71,3.85,2.49,2.49,0,0,1,1.72,1.63h2.61a3.15,3.15,0,0,0,3.15-3.15V189.4a3.15,3.15,0,0,0-3.15-3.15h-6.23A3.15,3.15,0,0,0,210.43,189.4Z"/><path class="cls-82" d="M220.19,187.13a3.54,3.54,0,0,1,3.53,3.53v18.92c-5.66,5.66-14.07,2.05-14.07-3.32v-15.6a3.54,3.54,0,0,1,3.54-3.53Z"/><path class="cls-81" d="M210.43,189.4v25.7h0a2.49,2.49,0,0,1,2.3,1.53,2.48,2.48,0,0,1,2.71,3.85,2.49,2.49,0,0,1,1.72,1.63h2.61a3.15,3.15,0,0,0,3.15-3.15V189.4a3.15,3.15,0,0,0-3.15-3.15h-6.23A3.15,3.15,0,0,0,210.43,189.4Z"/><path class="cls-83" d="M213.47,216.51a2.47,2.47,0,0,1,1.55.55h5.91a.46.46,0,0,0,0-.92h-8.45a2.51,2.51,0,0,1,.28.49A2.47,2.47,0,0,1,213.47,216.51ZM212,207.87a.46.46,0,0,0,.46.46h8.49a.46.46,0,0,0,0-.92h-8.49A.46.46,0,0,0,212,207.87Zm0,4.37a.46.46,0,0,0,.46.46h8.49a.46.46,0,0,0,0-.92h-8.49A.46.46,0,0,0,212,212.24Z"/><path class="cls-51" d="M220.19,185.05a3.54,3.54,0,0,1,3.53,3.53v17.68c-5.46,6.8-8.23-6.76-14.07,0V188.59a3.54,3.54,0,0,1,3.54-3.53Z"/><path class="cls-84" d="M209.66,188.56l8.32,5.38-4.12,4.18,9.86,6.18V188.59a3.54,3.54,0,0,0-3.53-3.53h-7A3.53,3.53,0,0,0,209.66,188.56Z"/><path class="cls-38" d="M210.57,186.23l11.51,7.28-4.47,4.24,6.11,3.67V188.59a3.54,3.54,0,0,0-3.53-3.53h-7A3.51,3.51,0,0,0,210.57,186.23Z"/><path class="cls-85" d="M117.14,50.71a2.51,2.51,0,0,0,1.71.71l14.87,14.87,4.63-4.63L123.48,46.79a2.48,2.48,0,0,0-.73-1.7L112,34.3a2.87,2.87,0,0,0-4,.23l-1.34,1.34a2.92,2.92,0,0,0-.34,4Z"/><rect class="cls-33" x="103.92" y="33.83" width="6.19" height="2.31" transform="translate(6.61 85.92) rotate(-45)"/><rect class="cls-33" x="134.66" y="62.53" width="4.87" height="5.05" transform="translate(-5.86 115.97) rotate(-44.99)"/><path class="cls-86" d="M105.64,38a2.57,2.57,0,0,0,.61,1.82c0,.06,10.89,10.89,10.89,10.89a2.51,2.51,0,0,0,1.71.71l4.63-4.63a2.48,2.48,0,0,0-.73-1.7L112,34.3a2.54,2.54,0,0,0-1.91-.72Z"/><path class="cls-87" d="M108,41.56l5.63-5.63-1.32-1.32-5.63,5.63Z"/><path class="cls-88" d="M108.51,35.13a2,2,0,0,1,1,.56l12.53,12.53,1.42-1.42a2.48,2.48,0,0,0-.73-1.7L112,34.3a2.54,2.54,0,0,0-1.91-.72Z"/><polygon class="cls-85" points="141.22 67.24 139.18 65.21 137.24 67.15 141.22 71.12 141.22 67.24"/></g></g></svg>